<svg width="33" height="32" viewBox="0 0 33 32" fill="none" xmlns="http://www.w3.org/2000/svg">
<path d="M16.5 22.005C15.3065 22.005 14.1398 21.6535 13.1475 20.9948C12.1551 20.3362 11.3817 19.4001 10.925 18.3048C10.4683 17.2096 10.3488 16.0044 10.5816 14.8416C10.8144 13.6789 11.3891 12.6109 12.2331 11.7726C13.077 10.9343 14.1522 10.3635 15.3227 10.1322C16.4933 9.90091 17.7066 10.0196 18.8092 10.4733C19.9118 10.927 20.8543 11.6952 21.5173 12.6809C22.1804 13.6666 22.5343 14.8255 22.5343 16.011C22.5343 17.6007 21.8986 19.1253 20.7669 20.2494C19.6352 21.3735 18.1004 22.005 16.5 22.005ZM16.5 12.015C15.7043 12.015 14.9265 12.2494 14.265 12.6885C13.6034 13.1275 13.0878 13.7516 12.7833 14.4818C12.4788 15.212 12.3992 16.0154 12.5544 16.7906C12.7096 17.5657 13.0928 18.2778 13.6554 18.8366C14.218 19.3955 14.9348 19.776 15.7152 19.9302C16.4955 20.0844 17.3044 20.0053 18.0395 19.7028C18.7746 19.4004 19.4028 18.8882 19.8449 18.2311C20.2869 17.5739 20.5229 16.8013 20.5229 16.011C20.5229 14.9512 20.099 13.9348 19.3446 13.1854C18.5902 12.436 17.5669 12.015 16.5 12.015Z" fill="#FFFAFA"/>
<path d="M16.5 27C13.2549 26.9855 10.0997 25.9388 7.49706 24.0134C4.89442 22.0879 2.98115 19.385 2.03772 16.3007C1.98743 16.1108 1.98743 15.9112 2.03772 15.7213C2.963 12.6246 4.87088 9.90781 7.47703 7.9758C10.0832 6.04379 13.2481 5 16.5 5C19.7519 5 22.9168 6.04379 25.523 7.9758C28.1291 9.90781 30.037 12.6246 30.9623 15.7213C31.0126 15.9112 31.0126 16.1108 30.9623 16.3007C30.0188 19.385 28.1056 22.0879 25.5029 24.0134C22.9003 25.9388 19.7451 26.9855 16.5 27ZM4.05922 16.011C4.90939 18.624 6.57152 20.902 8.8068 22.5178C11.0421 24.1337 13.7355 25.0041 16.5 25.0041C19.2645 25.0041 21.9579 24.1337 24.1932 22.5178C26.4285 20.902 28.0906 18.624 28.9408 16.011C28.0906 13.398 26.4285 11.12 24.1932 9.50416C21.9579 7.88833 19.2645 7.01789 16.5 7.01789C13.7355 7.01789 11.0421 7.88833 8.8068 9.50416C6.57152 11.12 4.90939 13.398 4.05922 16.011Z" fill="#FFFAFA"/>
<path d="M16.5 27C13.2549 26.9855 10.0997 25.9388 7.49706 24.0134C4.89442 22.0879 2.98115 19.385 2.03772 16.3007C1.98743 16.1108 1.98743 15.9112 2.03772 15.7213C2.963 12.6246 4.87088 9.90781 7.47703 7.9758C10.0832 6.04379 13.2481 5 16.5 5C19.7519 5 22.9168 6.04379 25.523 7.9758C28.1291 9.90781 30.037 12.6246 30.9623 15.7213C31.0126 15.9112 31.0126 16.1108 30.9623 16.3007C30.0188 19.385 28.1056 22.0879 25.5029 24.0134C22.9003 25.9388 19.7451 26.9855 16.5 27ZM4.05922 16.011C4.90939 18.624 6.57152 20.902 8.8068 22.5178C11.0421 24.1337 13.7355 25.0041 16.5 25.0041C19.2645 25.0041 21.9579 24.1337 24.1932 22.5178C26.4285 20.902 28.0906 18.624 28.9408 16.011C28.0906 13.398 26.4285 11.12 24.1932 9.50416C21.9579 7.88833 19.2645 7.01789 16.5 7.01789C13.7355 7.01789 11.0421 7.88833 8.8068 9.50416C6.57152 11.12 4.90939 13.398 4.05922 16.011Z" fill="#FFFAFA"/>
</svg>
