<svg width="27" height="36" viewBox="0 0 27 36" fill="none" xmlns="http://www.w3.org/2000/svg"><path d="M13.5321 26.9941L5.26461 22.3937V8.61055L2.28221 5.63212L3.254 4.65903L6.63986 8.04038V21.5851L13.5321 25.4203L20.4243 21.5851V8.04039L23.8102 4.65903L24.782 5.63212L21.7995 8.61057V22.3937L13.5321 26.9941Z" fill="#fff"/><path d="M19.9438 0L16.9611 2.97882H14.2197V0.293124H12.8445V2.97882H10.1031L7.12032 0L6.14852 0.973085L9.53399 4.35405H17.5302L20.9156 0.973085L19.9438 0Z" fill="#fff"/><path d="M13.5321 36L9.05162 33.6035L9.70025 32.3908L13.5321 34.4404L17.3468 32.4L17.9954 33.6126L13.5321 36Z" fill="#fff"/><path d="M25.8269 22.9655C25.152 23.9319 24.3625 24.8192 23.4802 25.6029C22.5942 26.3899 21.6163 27.0709 20.5737 27.6268C19.513 28.1925 18.3853 28.6285 17.2221 28.9229C16.0236 29.2262 14.7829 29.3799 13.5345 29.3799C12.2701 29.3799 11.0141 29.2223 9.80147 28.9113C8.62461 28.6096 7.48506 28.1628 6.41449 27.5835C4.31016 26.4447 2.48528 24.7952 1.13707 22.8133L0 23.5868C0.733473 24.665 1.59634 25.6558 2.56463 26.5317C3.53603 27.4104 4.61111 28.1712 5.75995 28.7929C6.92934 29.4258 8.17419 29.9138 9.4599 30.2435C10.7841 30.583 12.155 30.7552 13.5345 30.7552C14.8966 30.7552 16.2508 30.5873 17.5594 30.2561C18.8303 29.9345 20.0622 29.4582 21.2208 28.8403C22.359 28.2333 23.4264 27.4901 24.3935 26.6311C25.3292 25.8 26.1689 24.8617 26.8916 23.8415L25.8269 22.9655Z" fill="#fff"/><path d="M25.2583 10.7584L24.2802 11.739C24.6294 12.1942 24.9051 12.6963 25.1003 13.2343C25.3223 13.8459 25.4348 14.4893 25.4348 15.1466C25.4348 15.8059 25.3216 16.4512 25.0984 17.0644C24.8826 17.6569 24.5696 18.2061 24.1679 18.6965L25.2318 19.5679C25.7319 18.9574 26.1218 18.2733 26.3906 17.5348C26.6689 16.7704 26.81 15.9669 26.81 15.1466C26.81 14.3288 26.6697 13.5276 26.3931 12.7652C26.129 12.0374 25.7471 11.3625 25.2583 10.7584Z" fill="#fff"/><path d="M1.83041 10.7803L2.8085 11.7609C2.45935 12.2161 2.18364 12.7183 1.9884 13.2563C1.76647 13.8679 1.65393 14.5113 1.65393 15.1686C1.65393 15.8279 1.76711 16.4731 1.99034 17.0863C2.20607 17.6789 2.51912 18.228 2.92081 18.7184L1.85692 19.5898C1.35682 18.9793 0.966926 18.2953 0.698068 17.5567C0.419797 16.7923 0.278699 15.9888 0.278699 15.1686C0.278699 14.3508 0.418988 13.5496 0.695639 12.7871C0.959729 12.0594 1.34157 11.3844 1.83041 10.7803Z" fill="#fff"/><path d="M9.52056 8.00626C9.77647 8.00626 10.016 8.00609 10.2556 8.00629C10.8368 8.00676 11.4181 8.00332 11.9993 8.00919C12.5152 8.01439 12.9987 8.13368 13.4131 8.45932C13.8546 8.80628 14.0564 9.28069 14.0632 9.82494C14.0787 11.0636 14.0711 13.5414 14.072 14.7802C14.0727 15.7548 14.0709 16.7294 14.0724 17.704C14.0734 18.3264 13.9029 18.8749 13.3923 19.2724C13.0021 19.5762 12.5411 19.6948 12.0602 19.7049C11.2386 19.7222 10.4164 19.7113 9.59442 19.7115C9.57231 19.7115 9.55019 19.7038 9.52054 19.6984C9.52056 16.2192 9.52056 11.5067 9.52056 8.00626ZM10.8981 18.5513C11.2211 18.5513 11.5253 18.5521 11.8295 18.5511C12.4049 18.549 12.6924 18.2607 12.6927 17.683C12.6934 16.0461 12.6931 13.1703 12.693 11.5334C12.693 10.9995 12.696 10.4655 12.6912 9.93166C12.6878 9.56195 12.472 9.24614 12.124 9.20888C11.7214 9.16578 11.3106 9.19886 10.8981 9.19886C10.8981 11.8939 10.8981 15.8301 10.8981 18.5513Z" fill="#fff"/><path d="M17.6422 19.7126C17.2334 19.7126 16.841 19.7126 16.4485 19.7126C16.3965 19.7126 16.3445 19.7126 16.2803 19.7126C16.2803 16.2234 16.2803 11.4948 16.2803 8.00571C16.7316 8.00571 17.1799 8.00571 17.6422 8.00571C17.6422 11.4855 17.6422 16.214 17.6422 19.7126Z" fill="#fff"/></svg>